<svg width="40" height="40" viewBox="0 0 40 40" fill="none" xmlns="http://www.w3.org/2000/svg">
<path d="M29.9562 19.4043C29.927 19.3385 29.2218 17.7743 27.6477 16.2C26.1882 14.7403 23.6763 13 20 13C16.3237 13 13.8119 14.7402 12.3523 16.2001C10.7782 17.7743 10.073 19.3385 10.0438 19.4043C10.0149 19.4693 10 19.5397 10 19.6108C10 19.682 10.0149 19.7523 10.0438 19.8173C10.073 19.8831 10.7783 21.447 12.3523 23.0209C13.8121 24.4804 16.3237 26.2203 20 26.2203C23.6763 26.2203 26.188 24.4804 27.6477 23.0209C29.2217 21.447 29.927 19.8831 29.9561 19.8173C29.985 19.7523 30 19.6819 30 19.6108C30 19.5396 29.9851 19.4693 29.9562 19.4043V19.4043ZM20 25.2033C17.3409 25.2033 15.0186 24.2359 13.0976 22.3279C12.2922 21.5278 11.6106 20.612 11.0754 19.6108C11.6106 18.6093 12.2922 17.6933 13.0977 16.893C15.0186 14.9845 17.3409 14.0168 20 14.0168C22.6591 14.0168 24.9814 14.9844 26.9023 16.8928C27.7078 17.6931 28.3894 18.6091 28.9245 19.6105C28.3849 20.6444 25.6813 25.2032 20 25.2032V25.2033ZM20 15.7125C19.229 15.7125 18.4753 15.9411 17.8342 16.3694C17.1932 16.7978 16.6935 17.4066 16.3984 18.119C16.1034 18.8313 16.0262 19.6151 16.1766 20.3713C16.327 21.1275 16.6983 21.8221 17.2435 22.3673C17.7887 22.9125 18.4833 23.2838 19.2395 23.4342C19.9957 23.5846 20.7795 23.5074 21.4918 23.2123C22.2042 22.9173 22.813 22.4176 23.2413 21.7766C23.6697 21.1355 23.8983 20.3818 23.8983 19.6108C23.8972 18.5772 23.4861 17.5864 22.7552 16.8555C22.0244 16.1247 21.0336 15.7136 20 15.7125V15.7125ZM20 22.4921C19.4301 22.4921 18.873 22.3232 18.3992 22.0065C17.9254 21.6899 17.5561 21.2399 17.338 20.7134C17.1199 20.1869 17.0628 19.6076 17.174 19.0487C17.2852 18.4897 17.5596 17.9763 17.9626 17.5733C18.3655 17.1704 18.879 16.896 19.4379 16.7848C19.9968 16.6736 20.5762 16.7307 21.1027 16.9487C21.6292 17.1668 22.0792 17.5361 22.3958 18.01C22.7124 18.4838 22.8814 19.0409 22.8814 19.6108C22.8805 20.3747 22.5767 21.1071 22.0365 21.6473C21.4963 22.1874 20.7639 22.4913 20 22.4921V22.4921Z" fill="#757575"/>
</svg>
