<svg width="40" height="40" viewBox="0 0 40 40" fill="none" xmlns="http://www.w3.org/2000/svg">
<path d="M28.0381 22.7197C28.0798 22.7908 28.107 22.8695 28.1182 22.9511C28.1293 23.0328 28.1242 23.1159 28.1032 23.1956C28.0821 23.2752 28.0455 23.35 27.9954 23.4155C27.9454 23.4809 27.8828 23.5359 27.8114 23.5771C27.7401 23.6183 27.6612 23.645 27.5795 23.6556C27.4978 23.6662 27.4147 23.6606 27.3352 23.639C27.2556 23.6174 27.1812 23.5803 27.116 23.5298C27.0509 23.4793 26.9964 23.4164 26.9556 23.3447L25.5195 20.8573C24.6734 21.424 23.7429 21.8532 22.7626 22.129L23.2168 24.7044C23.2455 24.8677 23.2083 25.0356 23.1132 25.1714C23.0181 25.3072 22.873 25.3997 22.7098 25.4285C22.6737 25.4348 22.6371 25.438 22.6005 25.438C22.4537 25.4378 22.3116 25.3859 22.1992 25.2915C22.0868 25.1971 22.0112 25.0661 21.9857 24.9216L21.539 22.3882C20.5161 22.5376 19.4769 22.5372 18.4541 22.3871L18.0073 24.9204C17.9818 25.065 17.9063 25.196 17.7939 25.2905C17.6815 25.3849 17.5394 25.4368 17.3926 25.4371C17.356 25.437 17.3194 25.4339 17.2834 25.4275C17.1201 25.3987 16.975 25.3063 16.8799 25.1705C16.7848 25.0347 16.7476 24.8667 16.7763 24.7035L17.2305 22.1271C16.2514 21.8508 15.3221 21.4215 14.477 20.855L13.0325 23.3571C12.992 23.4292 12.9376 23.4926 12.8725 23.5436C12.8073 23.5945 12.7327 23.632 12.6529 23.6539C12.5731 23.6758 12.4898 23.6817 12.4077 23.6711C12.3257 23.6606 12.2465 23.6339 12.1749 23.5925C12.1033 23.5511 12.0405 23.496 11.9904 23.4302C11.9402 23.3644 11.9036 23.2893 11.8827 23.2093C11.8618 23.1292 11.857 23.0458 11.8686 22.9639C11.8801 22.882 11.9078 22.8032 11.9501 22.7321L13.4733 20.0938C12.942 19.6366 12.4535 19.1319 12.0137 18.586C11.9614 18.5223 11.9223 18.4488 11.8985 18.3698C11.8747 18.2909 11.8668 18.208 11.8753 18.1259C11.8837 18.0439 11.9082 17.9643 11.9475 17.8918C11.9868 17.8193 12.0401 17.7553 12.1042 17.7035C12.1684 17.6517 12.2422 17.6131 12.3213 17.5899C12.4005 17.5667 12.4834 17.5594 12.5654 17.5684C12.6473 17.5775 12.7267 17.6026 12.7989 17.6425C12.8711 17.6823 12.9347 17.736 12.9861 17.8006C13.4741 18.4079 14.0311 18.9565 14.6459 19.4352C14.6508 19.4386 14.6552 19.4425 14.66 19.4461C16.1854 20.6329 18.0674 21.2686 20 21.25C21.9321 21.2686 23.8136 20.6331 25.3388 19.4469C25.343 19.4438 25.3468 19.4406 25.351 19.4375C25.9669 18.9582 26.5249 18.4089 27.0138 17.8006C27.1184 17.673 27.2692 17.592 27.4333 17.5752C27.5974 17.5584 27.7615 17.6071 27.8898 17.7107C28.0181 17.8144 28.1003 17.9646 28.1183 18.1285C28.1364 18.2925 28.0889 18.457 27.9862 18.586C27.5456 19.1329 27.056 19.6385 26.5235 20.0964L28.0381 22.7197Z" fill="#757575"/>
</svg>
