<svg width="95" height="66" viewBox="0 0 95 66" fill="none" xmlns="http://www.w3.org/2000/svg">
<path d="M40 3C38.89 3 38 3.89 38 5V19C38 19.5304 38.2107 20.0391 38.5858 20.4142C38.9609 20.7893 39.4696 21 40 21H54C54.5304 21 55.0391 20.7893 55.4142 20.4142C55.7893 20.0391 56 19.5304 56 19V12H54V19H40V5H47V3H40ZM52.78 4C52.61 4 52.43 4.07 52.3 4.2L51.08 5.41L53.58 7.91L54.8 6.7C55.06 6.44 55.06 6 54.8 5.75L53.25 4.2C53.12 4.07 52.95 4 52.78 4ZM50.37 6.12L43 13.5V16H45.5L52.87 8.62L50.37 6.12Z" fill="white"/>
<path d="M18.625 31.625H20.125V43H18.625V34.2344L13.0234 43H11.5156V31.625H13.0234V40.3906L18.625 31.625Z" fill="white"/>
<path d="M27.2812 36.8594C27.2812 36.4635 27.1302 36.151 26.8281 35.9219C26.526 35.6875 26.112 35.5703 25.5859 35.5703C25.0755 35.5703 24.6484 35.7031 24.3047 35.9688C23.9661 36.2344 23.7969 36.5469 23.7969 36.9062H22.3594C22.3594 36.1719 22.6667 35.5703 23.2812 35.1016C23.8958 34.6328 24.6641 34.3984 25.5859 34.3984C26.5755 34.3984 27.3464 34.612 27.8984 35.0391C28.4505 35.4609 28.7266 36.0651 28.7266 36.8516C28.7266 37.2318 28.612 37.5807 28.3828 37.8984C28.1536 38.2161 27.8281 38.4688 27.4062 38.6562C28.3906 38.9896 28.8828 39.6458 28.8828 40.625C28.8828 41.401 28.5833 42.0156 27.9844 42.4688C27.3854 42.9219 26.5859 43.1484 25.5859 43.1484C24.612 43.1484 23.8073 42.9115 23.1719 42.4375C22.5417 41.9583 22.2266 41.3125 22.2266 40.5H23.6641C23.6641 40.9115 23.8464 41.2656 24.2109 41.5625C24.5807 41.8542 25.0391 42 25.5859 42C26.138 42 26.5833 41.8724 26.9219 41.6172C27.2604 41.362 27.4297 41.0312 27.4297 40.625C27.4297 40.151 27.2865 39.8125 27 39.6094C26.7188 39.401 26.2786 39.2969 25.6797 39.2969H24.2344V38.0781H25.8047C26.7891 38.0521 27.2812 37.6458 27.2812 36.8594Z" fill="white"/>
<path d="M35.625 41.0859L38.5 34.5469H40.3047V43H38.8594V36.8516L36.125 43H35.125L32.3359 36.7188V43H30.8906V34.5469H32.7656L35.625 41.0859Z" fill="white"/>
<path d="M46.1406 43.1562C44.9948 43.1562 44.0625 42.7812 43.3438 42.0312C42.625 41.276 42.2656 40.2682 42.2656 39.0078V38.7422C42.2656 37.9036 42.4245 37.1562 42.7422 36.5C43.0651 35.8385 43.513 35.3229 44.0859 34.9531C44.6641 34.5781 45.2891 34.3906 45.9609 34.3906C47.0599 34.3906 47.9141 34.7526 48.5234 35.4766C49.1328 36.2005 49.4375 37.237 49.4375 38.5859V39.1875H43.7109C43.7318 40.0208 43.974 40.6953 44.4375 41.2109C44.9062 41.7214 45.5 41.9766 46.2188 41.9766C46.7292 41.9766 47.1615 41.8724 47.5156 41.6641C47.8698 41.4557 48.1797 41.1797 48.4453 40.8359L49.3281 41.5234C48.6198 42.612 47.5573 43.1562 46.1406 43.1562ZM45.9609 35.5781C45.3776 35.5781 44.888 35.7917 44.4922 36.2188C44.0964 36.6406 43.8516 37.2344 43.7578 38H47.9922V37.8906C47.9505 37.1562 47.7526 36.5885 47.3984 36.1875C47.0443 35.7812 46.5651 35.5781 45.9609 35.5781Z" fill="white"/>
<path d="M58.0234 43H56.5781V39.3906H52.6953V43H51.2422V34.5469H52.6953V38.2109H56.5781V34.5469H58.0234V43Z" fill="white"/>
<path d="M65.8203 34.5469H67.2656V43H65.8203V36.8359L61.9219 43H60.4766V34.5469H61.9219V40.7188L65.8203 34.5469Z" fill="white"/>
<path d="M75.8672 35.7188H73.0312V43H71.5859V35.7188H68.8047V34.5469H75.8672V35.7188Z" fill="white"/>
<path d="M78.8516 37.4609H81.0469C82.0052 37.4714 82.763 37.7214 83.3203 38.2109C83.8776 38.7005 84.1562 39.3646 84.1562 40.2031C84.1562 41.0469 83.8698 41.724 83.2969 42.2344C82.724 42.7448 81.9531 43 80.9844 43H77.4062V34.5469H78.8516V37.4609ZM78.8516 38.6406V41.8203H81C81.5417 41.8203 81.9609 41.6823 82.2578 41.4062C82.5547 41.125 82.7031 40.7422 82.7031 40.2578C82.7031 39.7891 82.5573 39.4062 82.2656 39.1094C81.9792 38.8073 81.5755 38.651 81.0547 38.6406H78.8516Z" fill="white"/>
<path d="M0.601562 57.9297C0.601562 56.5182 0.875 55.4089 1.42188 54.6016C1.96875 53.7943 2.71875 53.3906 3.67188 53.3906C4.11458 53.3906 4.5026 53.4661 4.83594 53.6172V50H6.28125V53.6641C6.64583 53.4818 7.07292 53.3906 7.5625 53.3906C8.52083 53.3906 9.27344 53.7943 9.82031 54.6016C10.3672 55.4089 10.6406 56.5729 10.6406 58.0938C10.6406 59.3385 10.3672 60.3281 9.82031 61.0625C9.27865 61.7969 8.53125 62.1641 7.57812 62.1641C7.07292 62.1641 6.64062 62.0807 6.28125 61.9141V65.25H4.83594V61.9375C4.49219 62.0885 4.09896 62.1641 3.65625 62.1641C2.70833 62.1641 1.96094 61.7969 1.41406 61.0625C0.872396 60.3281 0.601562 59.3229 0.601562 58.0469V57.9297ZM9.19531 57.9297C9.19531 56.8672 9.01302 56.0443 8.64844 55.4609C8.28385 54.8724 7.78125 54.5781 7.14062 54.5781C6.8125 54.5781 6.52604 54.6302 6.28125 54.7344V60.8516C6.51562 60.9401 6.80729 60.9844 7.15625 60.9844C7.80208 60.9844 8.30208 60.7344 8.65625 60.2344C9.01562 59.7344 9.19531 58.9661 9.19531 57.9297ZM2.04688 58.0938C2.04688 59.0417 2.21615 59.7604 2.55469 60.25C2.89323 60.7396 3.38021 60.9844 4.01562 60.9844C4.31771 60.9844 4.59115 60.9375 4.83594 60.8438V54.7109C4.61719 54.6224 4.34896 54.5781 4.03125 54.5781C3.39583 54.5781 2.90625 54.862 2.5625 55.4297C2.21875 55.9974 2.04688 56.8854 2.04688 58.0938Z" fill="white"/>
<path d="M12.1406 57.6953C12.1406 56.8672 12.3021 56.1224 12.625 55.4609C12.9531 54.7995 13.4062 54.2891 13.9844 53.9297C14.5677 53.5703 15.2318 53.3906 15.9766 53.3906C17.1276 53.3906 18.0573 53.7891 18.7656 54.5859C19.4792 55.3828 19.8359 56.4427 19.8359 57.7656V57.8672C19.8359 58.6901 19.6771 59.4297 19.3594 60.0859C19.0469 60.737 18.5964 61.2448 18.0078 61.6094C17.4245 61.974 16.7526 62.1562 15.9922 62.1562C14.8464 62.1562 13.9167 61.7578 13.2031 60.9609C12.4948 60.1641 12.1406 59.1094 12.1406 57.7969V57.6953ZM13.5938 57.8672C13.5938 58.8047 13.8099 59.5573 14.2422 60.125C14.6797 60.6927 15.263 60.9766 15.9922 60.9766C16.7266 60.9766 17.3099 60.6901 17.7422 60.1172C18.1745 59.5391 18.3906 58.7318 18.3906 57.6953C18.3906 56.7682 18.1693 56.0182 17.7266 55.4453C17.2891 54.8672 16.7057 54.5781 15.9766 54.5781C15.263 54.5781 14.6875 54.862 14.25 55.4297C13.8125 55.9974 13.5938 56.8099 13.5938 57.8672Z" fill="white"/>
<path d="M27.7578 54.7188H24.9219V62H23.4766V54.7188H20.6953V53.5469H27.7578V54.7188Z" fill="white"/>
<path d="M28.4531 57.6953C28.4531 56.8672 28.6146 56.1224 28.9375 55.4609C29.2656 54.7995 29.7188 54.2891 30.2969 53.9297C30.8802 53.5703 31.5443 53.3906 32.2891 53.3906C33.4401 53.3906 34.3698 53.7891 35.0781 54.5859C35.7917 55.3828 36.1484 56.4427 36.1484 57.7656V57.8672C36.1484 58.6901 35.9896 59.4297 35.6719 60.0859C35.3594 60.737 34.9089 61.2448 34.3203 61.6094C33.737 61.974 33.0651 62.1562 32.3047 62.1562C31.1589 62.1562 30.2292 61.7578 29.5156 60.9609C28.8073 60.1641 28.4531 59.1094 28.4531 57.7969V57.6953ZM29.9062 57.8672C29.9062 58.8047 30.1224 59.5573 30.5547 60.125C30.9922 60.6927 31.5755 60.9766 32.3047 60.9766C33.0391 60.9766 33.6224 60.6901 34.0547 60.1172C34.487 59.5391 34.7031 58.7318 34.7031 57.6953C34.7031 56.7682 34.4818 56.0182 34.0391 55.4453C33.6016 54.8672 33.0182 54.5781 32.2891 54.5781C31.5755 54.5781 31 54.862 30.5625 55.4297C30.125 55.9974 29.9062 56.8099 29.9062 57.8672Z" fill="white"/>
<path d="M43.4219 54.7422H39.5234V62H38.0703V53.5469H43.4219V54.7422Z" fill="white"/>
<path d="M51.8203 57.8672C51.8203 59.1536 51.526 60.1901 50.9375 60.9766C50.349 61.763 49.5521 62.1562 48.5469 62.1562C47.5208 62.1562 46.7135 61.8307 46.125 61.1797V65.25H44.6797V53.5469H46L46.0703 54.4844C46.6589 53.7552 47.4766 53.3906 48.5234 53.3906C49.5391 53.3906 50.3411 53.7734 50.9297 54.5391C51.5234 55.3047 51.8203 56.3698 51.8203 57.7344V57.8672ZM50.375 57.7031C50.375 56.75 50.1719 55.9974 49.7656 55.4453C49.3594 54.8932 48.8021 54.6172 48.0938 54.6172C47.2188 54.6172 46.5625 55.0052 46.125 55.7812V59.8203C46.5573 60.5911 47.2188 60.9766 48.1094 60.9766C48.8021 60.9766 49.3516 60.7031 49.7578 60.1562C50.1693 59.6042 50.375 58.7865 50.375 57.7031Z" fill="white"/>
<path d="M58.8828 62C58.7995 61.8333 58.7318 61.5365 58.6797 61.1094C58.0078 61.8073 57.2057 62.1562 56.2734 62.1562C55.4401 62.1562 54.7552 61.9219 54.2188 61.4531C53.6875 60.9792 53.4219 60.3802 53.4219 59.6562C53.4219 58.776 53.7552 58.0938 54.4219 57.6094C55.0938 57.1198 56.0365 56.875 57.25 56.875H58.6562V56.2109C58.6562 55.7057 58.5052 55.3047 58.2031 55.0078C57.901 54.7057 57.4557 54.5547 56.8672 54.5547C56.3516 54.5547 55.9193 54.6849 55.5703 54.9453C55.2214 55.2057 55.0469 55.5208 55.0469 55.8906H53.5938C53.5938 55.4688 53.7422 55.0625 54.0391 54.6719C54.3411 54.276 54.7474 53.9635 55.2578 53.7344C55.7734 53.5052 56.3385 53.3906 56.9531 53.3906C57.9271 53.3906 58.6901 53.6354 59.2422 54.125C59.7943 54.6094 60.0807 55.2786 60.1016 56.1328V60.0234C60.1016 60.7995 60.2005 61.4167 60.3984 61.875V62H58.8828ZM56.4844 60.8984C56.9375 60.8984 57.3672 60.7812 57.7734 60.5469C58.1797 60.3125 58.474 60.0078 58.6562 59.6328V57.8984H57.5234C55.7526 57.8984 54.8672 58.4167 54.8672 59.4531C54.8672 59.9062 55.0182 60.2604 55.3203 60.5156C55.6224 60.7708 56.0104 60.8984 56.4844 60.8984Z" fill="white"/>
<path d="M62.0547 57.9297C62.0547 56.5182 62.3281 55.4089 62.875 54.6016C63.4219 53.7943 64.1719 53.3906 65.125 53.3906C65.5677 53.3906 65.9557 53.4661 66.2891 53.6172V50H67.7344V53.6641C68.099 53.4818 68.526 53.3906 69.0156 53.3906C69.974 53.3906 70.7266 53.7943 71.2734 54.6016C71.8203 55.4089 72.0938 56.5729 72.0938 58.0938C72.0938 59.3385 71.8203 60.3281 71.2734 61.0625C70.7318 61.7969 69.9844 62.1641 69.0312 62.1641C68.526 62.1641 68.0938 62.0807 67.7344 61.9141V65.25H66.2891V61.9375C65.9453 62.0885 65.5521 62.1641 65.1094 62.1641C64.1615 62.1641 63.4141 61.7969 62.8672 61.0625C62.3255 60.3281 62.0547 59.3229 62.0547 58.0469V57.9297ZM70.6484 57.9297C70.6484 56.8672 70.4661 56.0443 70.1016 55.4609C69.737 54.8724 69.2344 54.5781 68.5938 54.5781C68.2656 54.5781 67.9792 54.6302 67.7344 54.7344V60.8516C67.9688 60.9401 68.2604 60.9844 68.6094 60.9844C69.2552 60.9844 69.7552 60.7344 70.1094 60.2344C70.4688 59.7344 70.6484 58.9661 70.6484 57.9297ZM63.5 58.0938C63.5 59.0417 63.6693 59.7604 64.0078 60.25C64.3464 60.7396 64.8333 60.9844 65.4688 60.9844C65.7708 60.9844 66.0443 60.9375 66.2891 60.8438V54.7109C66.0703 54.6224 65.8021 54.5781 65.4844 54.5781C64.849 54.5781 64.3594 54.862 64.0156 55.4297C63.6719 55.9974 63.5 56.8854 63.5 58.0938Z" fill="white"/>
<path d="M79.4453 53.5469H80.8906V62H79.4453V55.8359L75.5469 62H74.1016V53.5469H75.5469V59.7188L79.4453 53.5469Z" fill="white"/>
<path d="M84.7891 57.1328H86.8203C86.9297 56.0078 87.3281 55.1042 88.0156 54.4219C88.7083 53.7344 89.5807 53.3906 90.6328 53.3906C91.737 53.3906 92.6406 53.763 93.3438 54.5078C94.0469 55.2526 94.4271 56.2214 94.4844 57.4141L94.4922 57.8672C94.4922 58.6901 94.3307 59.4323 94.0078 60.0938C93.6849 60.7552 93.2318 61.2656 92.6484 61.625C92.0651 61.9792 91.3984 62.1562 90.6484 62.1562C89.5599 62.1562 88.6693 61.8021 87.9766 61.0938C87.2839 60.3802 86.8958 59.4557 86.8125 58.3203H84.7891V62H83.3438V53.5469H84.7891V57.1328ZM88.2422 57.8672C88.2422 58.8047 88.4583 59.5573 88.8906 60.125C89.3281 60.6927 89.9141 60.9766 90.6484 60.9766C91.3828 60.9766 91.9635 60.6875 92.3906 60.1094C92.8229 59.5312 93.0391 58.7266 93.0391 57.6953C93.0391 56.7734 92.8203 56.0234 92.3828 55.4453C91.9453 54.8672 91.362 54.5781 90.6328 54.5781C89.9141 54.5781 89.3359 54.862 88.8984 55.4297C88.4609 55.9974 88.2422 56.8099 88.2422 57.8672Z" fill="white"/>
</svg>
