<?xml version="1.0" encoding="UTF-8"?>
<svg fill="none" viewBox="0 0 40 40" xmlns="http://www.w3.org/2000/svg">
<path d="m29.406 18.125c0.125 0.6695 0.193 1.3694 0.193 2.0998 0 5.7131-3.8236 9.7755-9.5987 9.7755-1.3133 4e-4 -2.6139-0.258-3.8273-0.7604s-2.316-1.239-3.2447-2.1676c-0.9286-0.9287-1.6652-2.0313-2.1676-3.2447s-0.7608-2.514-0.7604-3.8273c-4e-4 -1.3133 0.258-2.6139 0.7604-3.8273s1.239-2.316 2.1676-3.2447c0.9287-0.9286 2.0313-1.6652 3.2447-2.1676s2.514-0.7608 3.8273-0.7604c2.7001 0 4.9563 0.9935 6.6873 2.6067l-2.819 2.8189v-0.0071c-1.0493-0.9996-2.3811-1.5126-3.8683-1.5126-3.2995 0-5.9813 2.7875-5.9813 6.088 0 3.2995 2.6818 6.0931 5.9813 6.0931 2.9937 0 5.0315-1.7117 5.45-4.0624h-5.45v-3.8999h9.4067-1e-3z" fill="#757575"/>
</svg>
