<svg width="40" height="40" viewBox="0 0 40 40" fill="none" xmlns="http://www.w3.org/2000/svg">
<path d="M20.5 25C21.163 25 21.7989 25.2634 22.2678 25.7322C22.7366 26.2011 23 26.837 23 27.5C23 28.163 22.7366 28.7989 22.2678 29.2678C21.7989 29.7366 21.163 30 20.5 30C19.837 30 19.2011 29.7366 18.7322 29.2678C18.2634 28.7989 18 28.163 18 27.5C18 26.837 18.2634 26.2011 18.7322 25.7322C19.2011 25.2634 19.837 25 20.5 25ZM20.5 17.5C21.163 17.5 21.7989 17.7634 22.2678 18.2322C22.7366 18.7011 23 19.337 23 20C23 20.663 22.7366 21.2989 22.2678 21.7678C21.7989 22.2366 21.163 22.5 20.5 22.5C19.837 22.5 19.2011 22.2366 18.7322 21.7678C18.2634 21.2989 18 20.663 18 20C18 19.337 18.2634 18.7011 18.7322 18.2322C19.2011 17.7634 19.837 17.5 20.5 17.5ZM20.5 10C21.163 10 21.7989 10.2634 22.2678 10.7322C22.7366 11.2011 23 11.837 23 12.5C23 13.163 22.7366 13.7989 22.2678 14.2678C21.7989 14.7366 21.163 15 20.5 15C19.837 15 19.2011 14.7366 18.7322 14.2678C18.2634 13.7989 18 13.163 18 12.5C18 11.837 18.2634 11.2011 18.7322 10.7322C19.2011 10.2634 19.837 10 20.5 10V10Z" fill="#757575"/>
</svg>
