<svg width="40" height="40" viewBox="0 0 40 40" fill="none" xmlns="http://www.w3.org/2000/svg">
<path d="M20.1818 10C15.6364 10 12 13.6364 12 18.1818V24.5455C12 25.2688 12.2873 25.9625 12.7988 26.4739C13.3103 26.9854 14.004 27.2727 14.7273 27.2727H17.4545V20H13.8182V18.1818C13.8182 16.4941 14.4886 14.8755 15.682 13.682C16.8755 12.4886 18.4941 11.8182 20.1818 11.8182C21.8696 11.8182 23.4882 12.4886 24.6816 13.682C25.875 14.8755 26.5455 16.4941 26.5455 18.1818V20H22.9091V27.2727H26.5455V28.1818H20.1818V30H25.6364C26.3597 30 27.0534 29.7127 27.5648 29.2012C28.0763 28.6897 28.3636 27.996 28.3636 27.2727V18.1818C28.3636 13.6364 24.7 10 20.1818 10Z" fill="#757575"/>
</svg>
