<svg width="40" height="40" viewBox="0 0 40 40" fill="none" xmlns="http://www.w3.org/2000/svg">
<g clip-path="url(#clip0)">
<path fill-rule="evenodd" clip-rule="evenodd" d="M27.2154 21.2014C27.9441 21.7999 28.6125 22.4684 29.2111 23.1971C29.4916 23.5088 29.7254 23.8595 29.9052 24.2383C30.1655 24.7589 29.9052 25.3663 29.4714 25.3663L26.5213 25.2795C26.176 25.3176 25.8267 25.2657 25.5074 25.1289C25.1881 24.9921 24.9097 24.7749 24.6991 24.4986C24.2987 24.0866 23.9221 23.652 23.5712 23.1971C23.42 23.0275 23.2446 22.8813 23.0506 22.7632C22.6167 22.5029 22.2696 22.5897 22.0961 23.0235C21.8896 23.4587 21.7716 23.9306 21.749 24.4118C21.749 25.106 21.4887 25.2795 20.7946 25.2795C19.3524 25.3873 17.9089 25.0866 16.6297 24.4118C15.5451 23.7312 14.6023 22.8473 13.8532 21.8088C12.3786 19.7495 11.1279 17.5389 10.1221 15.2144C9.86184 14.6938 10.0354 14.4335 10.6427 14.3467H13.5061C13.6803 14.3641 13.846 14.4303 13.9842 14.5378C14.1224 14.6452 14.2273 14.7896 14.287 14.9541C14.7653 16.2182 15.407 17.4142 16.1959 18.5116C16.4091 18.84 16.6726 19.1328 16.9768 19.3793C17.3239 19.6396 17.5842 19.5528 17.7577 19.119C17.7577 18.8587 17.8445 18.5984 17.8445 18.3381C17.9315 17.4726 17.9315 16.6005 17.8445 15.735C17.8137 15.4926 17.7033 15.2673 17.5305 15.0946C17.3577 14.9218 17.1324 14.8113 16.89 14.7806C16.6297 14.6938 16.6297 14.6071 16.8033 14.4335C16.8959 14.2903 17.0253 14.1744 17.1779 14.0981C17.3305 14.0218 17.5007 13.9878 17.6709 13.9997H20.9681C21.4887 14.0864 21.5755 14.3467 21.6623 14.8674V18.5116C21.6623 18.6851 21.749 19.2925 22.0961 19.4661C22.4432 19.6396 22.6167 19.2925 22.7903 19.119C23.556 18.2751 24.1722 17.3067 24.6124 16.2556C24.851 15.8095 25.054 15.3453 25.2198 14.8674C25.2721 14.7052 25.3777 14.5655 25.5195 14.4709C25.6613 14.3764 25.8308 14.3326 26.0007 14.3467H29.3846C29.9052 14.4335 30.0788 14.6938 29.9052 15.2144C29.5863 15.9824 29.1786 16.7104 28.6905 17.3836C28.1699 18.0778 27.5625 18.8587 27.0419 19.5528C26.9311 19.666 26.8468 19.8022 26.7947 19.9517C26.7427 20.1013 26.7243 20.2605 26.7409 20.4179C26.7575 20.5754 26.8086 20.7273 26.8906 20.8627C26.9726 20.9981 27.0835 21.1138 27.2154 21.2014Z" fill="#757575"/>
</g>
<defs>
<clipPath id="clip0">
<rect width="20" height="11.3666" fill="white" transform="translate(10 14)"/>
</clipPath>
</defs>
</svg>
