<?xml version="1.0" encoding="UTF-8"?>
<svg viewBox="0 0 40 40" xmlns="http://www.w3.org/2000/svg">
<circle cx="20" cy="20" r="18" fill="#C1C1C1"/>
<path d="m20 10c1.3261 0 2.5979 0.5268 3.5355 1.4645 0.9377 0.9376 1.4645 2.2094 1.4645 3.5355s-0.5268 2.5979-1.4645 3.5355c-0.9376 0.9377-2.2094 1.4645-3.5355 1.4645s-2.5979-0.5268-3.5355-1.4645c-0.9377-0.9376-1.4645-2.2094-1.4645-3.5355s0.5268-2.5979 1.4645-3.5355c0.9376-0.9377 2.2094-1.4645 3.5355-1.4645zm0 12.5c5.525 0 10 2.2375 10 5v2.5h-20v-2.5c0-2.7625 4.475-5 10-5z" fill="#EDEDED"/>
</svg>
