<svg width="81" height="27" viewBox="0 0 81 27" fill="none" xmlns="http://www.w3.org/2000/svg">
<path d="M0.474609 25.5876V24.9216H1.28469C1.99276 24.9216 2.53282 24.8136 2.90485 24.5975C3.28889 24.3695 3.57092 24.0635 3.75094 23.6794C3.85895 23.4274 3.91295 22.6713 3.91295 21.4112V5.35361C3.91295 4.10549 3.84695 3.32541 3.71493 3.01338C3.58292 2.70135 3.31289 2.43132 2.90485 2.2033C2.50881 1.96327 1.96876 1.84326 1.28469 1.84326H0.474609V1.1772H11.4017C14.318 1.1772 16.6642 1.57324 18.4404 2.36532C20.6126 3.33741 22.2568 4.80756 23.3729 6.77576C24.501 8.74395 25.0651 10.9702 25.0651 13.4544C25.0651 15.1706 24.789 16.7548 24.237 18.2069C23.6849 19.647 22.9709 20.8412 22.0948 21.7893C21.2187 22.7253 20.2046 23.4814 19.0525 24.0575C17.9124 24.6215 16.5142 25.0596 14.858 25.3716C14.126 25.5156 12.9739 25.5876 11.4017 25.5876H0.474609ZM9.78154 2.56333V21.6092C9.78154 22.6173 9.82955 23.2354 9.92555 23.4634C10.0216 23.6914 10.1836 23.8655 10.4116 23.9855C10.7356 24.1655 11.2037 24.2555 11.8157 24.2555C13.8199 24.2555 15.3501 23.5714 16.4062 22.2033C17.8463 20.3551 18.5664 17.4868 18.5664 13.5984C18.5664 10.4661 18.0744 7.96387 17.0903 6.09169C16.3102 4.62754 15.3081 3.63144 14.084 3.10339C13.2199 2.73135 11.7857 2.55133 9.78154 2.56333Z" fill="#195676"/>
<path d="M44.201 17.2708L50.8256 1.1772H60.7626V1.84326H59.9706C59.2505 1.84326 58.6744 1.96928 58.2424 2.2213C57.9424 2.38932 57.7023 2.67135 57.5223 3.06739C57.3903 3.35541 57.3243 4.10549 57.3243 5.31761V21.4112C57.3243 22.6593 57.3903 23.4394 57.5223 23.7515C57.6543 24.0635 57.9244 24.3395 58.3324 24.5795C58.7404 24.8076 59.2865 24.9216 59.9706 24.9216H60.7626V25.5876H48.0174V24.9216H48.8094C49.5295 24.9216 50.1056 24.7956 50.5376 24.5435C50.8376 24.3755 51.0777 24.0875 51.2577 23.6794C51.3897 23.3914 51.4557 22.6353 51.4557 21.4112V3.31941L42.0948 25.5876H41.6627L32.1578 3.48143V20.6731C32.1578 21.8733 32.1878 22.6113 32.2478 22.8874C32.4038 23.4874 32.7398 23.9795 33.2559 24.3635C33.7839 24.7356 34.606 24.9216 35.7221 24.9216V25.5876H27.3693V24.9216H27.6213C28.1614 24.9336 28.6654 24.8496 29.1335 24.6695C29.6015 24.4775 29.9556 24.2255 30.1956 23.9135C30.4356 23.6014 30.6216 23.1634 30.7536 22.5993C30.7776 22.4673 30.7896 21.8553 30.7896 20.7632V5.31761C30.7896 4.08149 30.7236 3.31341 30.5916 3.01338C30.4596 2.70135 30.1896 2.43132 29.7815 2.2033C29.3735 1.96327 28.8274 1.84326 28.1434 1.84326H27.3693V1.1772H37.3423L44.201 17.2708Z" fill="#195676"/>
<path d="M78.7644 0.619141L78.9625 8.75595H78.2244C77.8764 6.71575 77.0183 5.07759 75.6501 3.84146C74.294 2.59334 72.8238 1.96928 71.2397 1.96928C70.0156 1.96928 69.0435 2.29931 68.3234 2.95937C67.6153 3.60744 67.2613 4.35751 67.2613 5.2096C67.2613 5.74965 67.3873 6.2297 67.6393 6.64974C67.9874 7.2138 68.5454 7.77186 69.3135 8.32391C69.8776 8.71995 71.1797 9.42202 73.2199 10.4301C76.0762 11.8343 78.0024 13.1604 78.9985 14.4085C79.9826 15.6566 80.4746 17.0848 80.4746 18.6929C80.4746 20.7332 79.6765 22.4913 78.0804 23.9675C76.4962 25.4316 74.48 26.1637 72.0318 26.1637C71.2637 26.1637 70.5376 26.0857 69.8535 25.9297C69.1695 25.7737 68.3114 25.4796 67.2793 25.0476C66.7032 24.8076 66.2292 24.6875 65.8572 24.6875C65.5451 24.6875 65.2151 24.8076 64.8671 25.0476C64.519 25.2876 64.237 25.6536 64.021 26.1457H63.3549V16.9288H64.021C64.549 19.521 65.5631 21.5012 67.0633 22.8694C68.5754 24.2255 70.2016 24.9036 71.9418 24.9036C73.2859 24.9036 74.354 24.5375 75.1461 23.8055C75.9502 23.0734 76.3522 22.2213 76.3522 21.2492C76.3522 20.6731 76.1962 20.1151 75.8842 19.575C75.5841 19.035 75.1221 18.5249 74.498 18.0449C73.874 17.5528 72.7698 16.9168 71.1857 16.1367C68.9655 15.0446 67.3693 14.1145 66.3972 13.3464C65.4251 12.5783 64.675 11.7202 64.147 10.7722C63.6309 9.82406 63.3729 8.77996 63.3729 7.63984C63.3729 5.69565 64.087 4.03948 65.5151 2.67135C66.9433 1.30321 68.7434 0.619141 70.9157 0.619141C71.7077 0.619141 72.4758 0.71515 73.2199 0.907169C73.7839 1.05118 74.468 1.32121 75.2721 1.71725C76.0882 2.10129 76.6582 2.29331 76.9823 2.29331C77.2943 2.29331 77.5403 2.1973 77.7203 2.00528C77.9004 1.81326 78.0684 1.35121 78.2244 0.619141H78.7644Z" fill="#195676"/>
</svg>
